<svg id="Camada_1" data-name="Camada 1" xmlns="http://www.w3.org/2000/svg" viewBox="0 0 198.43 71.97"><defs><style>.cls-1{fill:#fff;}.cls-2{fill:#ef781c;}</style></defs><path class="cls-1" d="M86.43,51.94c-1.32,2.19-4.22,3.11-6.77,3.11-6.16,0-9.62-4.48-9.62-9.88v-16h7.74V43.54c0,2.45,1.32,4.38,4.07,4.38a4,4,0,0,0,4.22-4.33V29.19h7.74V50a39.39,39.39,0,0,0,.26,4.53H86.63A18.74,18.74,0,0,1,86.43,51.94Z"/><path class="cls-1" d="M115.55,64.16V52.45c-1.12,1.58-3.46,2.6-6.62,2.6-7.23,0-12.52-5.55-12.52-13.29,0-7.53,5-13.18,12.22-13.18,4.48,0,6.56,2,7.12,3.1V29.19h7.38v35Zm-5.6-16c3,0,5.7-2.09,5.7-6.32s-2.7-6.26-5.7-6.26-5.7,2-5.7,6.26S107,48.13,110,48.13Z"/><path class="cls-1" d="M127.56,54.49V17.63h7.59v14c1.07-1.58,3.87-3,7.33-3,7.33,0,11.76,5.6,11.76,13.18,0,7.74-5,13.29-12.07,13.29-3.36,0-5.95-1.48-7.12-3.41v2.85ZM140.8,35.55c-3,0-5.75,2-5.75,6.26s2.75,6.32,5.75,6.32,5.7-2.09,5.7-6.32S143.8,35.55,140.8,35.55Z"/><path class="cls-1" d="M162.74,39.88l5.88-.92c1.36-.2,1.81-.86,1.81-1.73,0-1.48-1.26-2.75-3.67-2.75a4,4,0,0,0-4.27,3.72l-6.63-1.38c.3-3.61,3.62-8.4,10.95-8.4,8.09,0,11.05,4.59,11.05,9.78V50.57a25.46,25.46,0,0,0,.3,3.92h-6.88a12.56,12.56,0,0,1-.25-2.85,7.84,7.84,0,0,1-7,3.56c-5.48,0-8.64-3.66-8.64-7.69C155.36,43,158.62,40.49,162.74,39.88Zm7.69,4.68V43.44l-4.72.77c-1.61.25-2.82,1-2.82,2.8,0,1.32.86,2.59,3,2.59S170.43,48.48,170.43,44.56Z"/><path class="cls-1" d="M198.43,36.82a10.73,10.73,0,0,0-2.45-.25c-3.1,0-5.9,1.83-5.9,6.87V54.49h-7.74V29.19h7.48V32.6c1.33-2.85,4.53-3.67,6.57-3.67a7.39,7.39,0,0,1,2,.26Z"/><rect class="cls-2" x="51.38" width="18.63" height="18.63"/><rect class="cls-2" x="40.17" y="18.5" width="11.08" height="11.08"/><rect class="cls-2" x="33.34" y="29.58" width="6.84" height="6.84"/><path class="cls-2" d="M9.38,12a35.87,35.87,0,0,0,23,59.85l.86.09V65.9l-.7-.08a29.83,29.83,0,0,1,0-59.28l.7-.08V.39l-.86.08A35.88,35.88,0,0,0,9.38,12Z"/></svg>